<svg width="100" height="74" viewBox="0 0 100 74" fill="none" xmlns="http://www.w3.org/2000/svg">
<path d="M21.4765 35.6547C23.6467 34.3319 25.5615 33.1666 27.3646 32.0485C32.024 29.2559 36.6888 26.4738 41.3588 23.7022C42.7865 22.956 43.9844 21.8444 44.8267 20.4839C45.669 19.1234 46.1246 17.5642 46.1459 15.97C46.1459 13.8598 46.3534 11.7654 46.4172 9.67095C46.5495 8.01299 46.1899 6.35287 45.3824 4.89317C44.5748 3.43346 43.3542 2.2373 41.8695 1.45063C40.4992 0.606816 38.9124 0.168683 37.2974 0.188222C35.6824 0.207761 34.1069 0.684152 32.7581 1.56086C24.6679 6.39542 16.5458 11.1197 8.53546 16.1433C6.10828 17.5961 4.09064 19.6284 2.66845 22.053C1.24626 24.4775 0.465268 27.2163 0.397436 30.017C0.0593066 33.9656 -0.063207 37.9293 0.0304265 41.8908C0.112133 44.2248 0.72894 46.51 1.83447 48.5748C2.94 50.6396 4.50548 52.4302 6.41319 53.8119C14.248 59.67 22.1308 65.4809 30.1252 71.1344C31.4036 72.0872 32.9204 72.6793 34.5134 72.8473C36.1064 73.0153 37.7157 72.7529 39.1693 72.0882C40.6229 71.4235 41.8662 70.3814 42.7662 69.0734C43.6661 67.7654 44.189 66.2406 44.279 64.6621C44.4704 62.4416 44.4704 60.2054 44.6141 57.985C44.7589 56.3741 44.4585 54.7545 43.7448 53.2987C43.0311 51.8428 41.9308 50.6052 40.561 49.7175C34.9442 45.6703 29.3912 41.5601 23.7903 37.4657C23.0882 36.9618 22.418 36.4264 21.4765 35.6862V35.6547Z" fill="#53BE93"/>
<path d="M32.7581 1.56086C24.6679 6.39542 19.1786 9.54496 11.2001 14.5055C2.88658 23.2927 21.4923 35.6705 21.4923 35.6705C21.4923 35.6705 25.5615 33.1666 27.3646 32.0485C32.024 29.2559 36.6886 26.479 41.3587 23.7179C42.772 22.9593 43.9529 21.8401 44.7782 20.4772C45.6034 19.1143 46.0427 17.5577 46.05 15.97C46.1298 13.8598 46.2575 11.7654 46.3373 9.67094C46.4775 8.0193 46.1284 6.36302 45.3323 4.90361C44.5363 3.44419 43.3276 2.24455 41.8534 1.45062C40.5148 0.648267 38.9833 0.213337 37.4174 0.190802C35.7659 0.214537 34.1534 0.688715 32.7581 1.56086Z" fill="#616364"/>
<path d="M77.9479 35.6547C75.7778 34.3319 73.9427 33.1666 72.0598 32.0485C67.4004 29.2559 62.7357 26.4738 58.0656 23.7022C56.6525 22.9475 55.4712 21.8314 54.6457 20.4709C53.8203 19.1104 53.3811 17.5557 53.3743 15.97C53.3743 13.8598 53.1668 11.7654 53.087 9.67095C52.9468 8.0193 53.2959 6.36303 54.092 4.90361C54.888 3.4442 56.0967 2.24456 57.5709 1.45063C58.9388 0.608186 60.5228 0.170773 62.135 0.190313C63.7472 0.209852 65.3199 0.685524 66.6664 1.56086C74.7565 6.39542 82.8786 11.1197 90.9847 16.1433C93.3951 17.6077 95.3954 19.6446 96.803 22.068C98.2106 24.4915 98.9807 27.2243 99.043 30.017C99.3539 33.9618 99.4498 37.9202 99.3302 41.8751C99.2532 44.21 98.6384 46.4969 97.5325 48.5624C96.4266 50.6279 94.8586 52.4177 92.9474 53.7961C85.0966 59.6543 77.2139 65.4652 69.2354 71.1186C67.9567 72.0485 66.448 72.6219 64.8676 72.7786C63.2872 72.9353 61.6931 72.6697 60.2524 72.0096C58.8117 71.3494 57.5775 70.319 56.679 69.0263C55.7805 67.7336 55.2508 66.2262 55.1455 64.6621C54.954 62.4416 54.954 60.2054 54.8104 57.985C54.669 56.3745 54.9709 54.7561 55.6843 53.3009C56.3977 51.8457 57.4961 50.6076 58.8634 49.7175C64.4962 45.6703 70.0333 41.5601 75.6501 37.4657C76.3363 36.9618 77.0065 36.4264 77.9479 35.6862V35.6547Z" fill="#616364"/>
<path d="M66.6664 1.56086C74.7565 6.39542 80.2298 9.54496 88.2561 14.5055C96.5537 23.2927 77.9639 35.6705 77.9639 35.6705C77.9639 35.6705 73.9427 33.1666 72.0758 32.0485C67.4164 29.2559 62.7463 26.479 58.0656 23.7179C56.6545 22.9568 55.4754 21.837 54.6506 20.4746C53.8257 19.1123 53.385 17.557 53.3743 15.97C53.3743 13.8598 53.1668 11.7654 53.103 9.67095C52.9592 8.02068 53.3051 6.36477 54.0984 4.90514C54.8918 3.4455 56.0983 2.24521 57.5709 1.45063C58.9388 0.608186 60.5228 0.170773 62.135 0.190313C63.7472 0.209852 65.3199 0.685524 66.6664 1.56086Z" fill="#53BE93"/>
<path d="M21.5882 35.6547C23.7743 34.3162 25.6253 33.1508 27.4923 32.0327C32.1836 29.2191 36.859 26.4475 41.5184 23.7179C42.9675 22.9604 44.1793 21.8266 45.023 20.4389C45.8667 19.0512 46.3101 17.4624 46.3055 15.8441C46.3055 13.7339 46.5129 11.6237 46.5927 9.54496C46.7325 7.88114 46.3804 6.21301 45.5788 4.74276C44.7773 3.27251 43.5608 2.06328 42.0769 1.26165C40.7002 0.417429 39.1071 -0.0194237 37.4865 0.00290603C35.8659 0.0252358 34.2858 0.505811 32.9336 1.38763C24.7955 6.25368 16.6256 11.1197 8.56736 16.033C6.12556 17.4997 4.09723 19.5495 2.66942 21.9934C1.2416 24.4373 0.460272 27.1967 0.397436 30.017C0.0683992 33.9766 -0.054119 37.9503 0.0304065 41.9223C0.107283 44.2639 0.721685 46.5576 1.82731 48.6308C2.93294 50.7039 4.50095 52.5024 6.41317 53.8906C14.3916 59.796 22.3701 65.6227 30.3485 71.3233C31.6369 72.2624 33.1584 72.8405 34.7522 72.9965C36.3461 73.1524 37.953 72.8804 39.403 72.2092C40.8531 71.538 42.0925 70.4926 42.9901 69.1836C43.8877 67.8745 44.4102 66.3503 44.5023 64.7723C44.6938 62.5361 44.6938 60.2999 44.8374 58.0638C44.9826 56.4444 44.681 54.8165 43.9646 53.3527C43.2482 51.8888 42.1438 50.6436 40.7684 49.749C35.1356 45.7648 29.5188 41.5601 23.9658 37.45C23.2637 36.9303 22.5935 36.3949 21.652 35.6547H21.5882Z" fill="#53BE93"/>
<path d="M32.9336 1.38763C24.7955 6.25368 19.2903 9.41898 11.2001 14.3953C2.85467 23.2297 21.5402 35.6547 21.5402 35.6547C21.5402 35.6547 25.5615 33.1666 27.4923 32.0327C32.1836 29.2296 36.859 26.4265 41.5184 23.7179C42.9652 22.9577 44.175 21.8233 45.0183 20.4362C45.8616 19.0491 46.3066 17.4617 46.3055 15.8441C46.3055 13.7339 46.5128 11.6237 46.5766 9.54496C46.7221 7.88224 46.374 6.21369 45.575 4.74284C44.776 3.27198 43.5606 2.06241 42.0769 1.26165C40.7002 0.417429 39.1071 -0.0194237 37.4865 0.00290603C35.8659 0.0252358 34.2858 0.505811 32.9336 1.38763Z" fill="#53BE93"/>
<path d="M32.9336 1.38763C24.7955 6.25368 19.2903 9.41898 11.2001 14.3953C2.85467 23.2297 21.5402 35.6547 21.5402 35.6547C21.5402 35.6547 25.5615 33.1666 27.4923 32.0327C32.1836 29.2296 36.859 26.4265 41.5184 23.7179C42.9652 22.9577 44.175 21.8233 45.0183 20.4362C45.8616 19.0491 46.3066 17.4617 46.3055 15.8441C46.3055 13.7339 46.5128 11.6237 46.5766 9.54496C46.7221 7.88224 46.374 6.21369 45.575 4.74284C44.776 3.27198 43.5606 2.06241 42.0769 1.26165C40.7002 0.417429 39.1071 -0.0194237 37.4865 0.00290603C35.8659 0.0252358 34.2858 0.505811 32.9336 1.38763Z" fill="url(#paint0_linear_540_595)"/>
<path d="M77.8522 35.6547C75.6661 34.3162 73.7991 33.1508 71.9322 32.0327C67.2408 29.2139 62.5655 26.4265 57.8582 23.6392C56.4256 22.8866 55.225 21.7669 54.3826 20.398C53.5403 19.029 53.0872 17.4613 53.0711 15.8598C53.0711 13.7496 52.8637 11.6394 52.7998 9.56071C52.6556 7.89048 53.0093 6.21508 53.8172 4.74061C54.6252 3.26613 55.8523 2.05689 57.3475 1.26165C58.7266 0.416057 60.3225 -0.0215155 61.9459 0.000813851C63.5693 0.0231432 65.1522 0.504437 66.5068 1.38763C74.6289 6.25368 82.7988 11.1197 90.8571 16.033C93.3008 17.4989 95.3315 19.5481 96.7621 21.9919C98.1926 24.4357 98.977 27.1955 99.043 30.017C99.3539 33.9828 99.4498 37.9622 99.3302 41.9381C99.2568 44.2803 98.6439 46.5753 97.538 48.649C96.4321 50.7227 94.8622 52.5206 92.9474 53.9063C85.086 59.817 77.1448 65.6279 69.1237 71.3391C67.8369 72.2794 66.3162 72.8585 64.7229 73.015C63.1295 73.1715 61.523 72.8995 60.0736 72.2279C58.6242 71.5563 57.386 70.5101 56.4903 69.2003C55.5946 67.8905 55.0747 66.3658 54.9859 64.788C54.7785 62.5519 54.7785 60.3157 54.6349 58.0795C54.4932 56.4606 54.7963 54.8339 55.5124 53.3707C56.2285 51.9074 57.331 50.6617 58.7039 49.7647C64.3686 45.7018 69.8737 41.5759 75.5703 37.4657C76.2724 36.946 76.9426 36.4106 77.9001 35.6705L77.8522 35.6547Z" fill="#616364"/>
<path d="M66.5068 1.38763C74.6289 6.25368 80.134 9.41899 88.1923 14.3953C96.5377 23.2298 77.8522 35.6547 77.8522 35.6547C77.8522 35.6547 73.8151 33.1508 71.9322 32.0327C67.2621 29.2296 62.5708 26.458 57.8582 23.7179C56.4245 22.9666 55.223 21.8473 54.3804 20.478C53.5378 19.1088 53.0855 17.5405 53.0711 15.9386C53.0711 13.8284 52.8636 11.7182 52.7839 9.63945C52.6327 7.95395 52.9861 6.26173 53.8001 4.77252C54.6142 3.28331 55.8532 2.06259 57.3635 1.26166C58.7136 0.458837 60.2554 0.0240928 61.8314 0.00183647C63.489 0.0330833 65.1061 0.512396 66.5068 1.38763Z" fill="#53BE93"/>
<path d="M66.5068 1.38763C74.6289 6.25368 80.134 9.41899 88.1923 14.3953C96.5377 23.2298 77.8522 35.6547 77.8522 35.6547C77.8522 35.6547 73.8151 33.1508 71.9322 32.0327C67.2621 29.2296 62.5708 26.458 57.8582 23.7179C56.4245 22.9666 55.223 21.8473 54.3804 20.478C53.5378 19.1088 53.0855 17.5405 53.0711 15.9386C53.0711 13.8284 52.8636 11.7182 52.7839 9.63945C52.6327 7.95395 52.9861 6.26173 53.8001 4.77252C54.6142 3.28331 55.8532 2.06259 57.3635 1.26166C58.7136 0.458837 60.2554 0.0240928 61.8314 0.00183647C63.489 0.0330833 65.1061 0.512396 66.5068 1.38763Z" fill="url(#paint1_linear_540_595)"/>
<defs>
<linearGradient id="paint0_linear_540_595" x1="0.105343" y1="36.5288" x2="99.2946" y2="36.5288" gradientUnits="userSpaceOnUse">
<stop stop-color="#0D485C"/>
<stop offset="0.33" stop-color="#236B6D"/>
<stop offset="1" stop-color="#56BF94"/>
</linearGradient>
<linearGradient id="paint1_linear_540_595" x1="90.3473" y1="17.8283" x2="52.8645" y2="17.8283" gradientUnits="userSpaceOnUse">
<stop stop-color="#231F20"/>
<stop offset="0.54" stop-color="#434243"/>
<stop offset="1" stop-color="#616364"/>
</linearGradient>
</defs>
</svg>
