<svg xmlns="http://www.w3.org/2000/svg" viewBox="0 108 353 19" fill="none">
  <path d="M9.108 109.454V110.786H5.688V122H4.05V110.786H0.612V109.454H9.108ZM12.7623 113.738C13.0503 113.174 13.4583 112.736 13.9863 112.424C14.5263 112.112 15.1803 111.956 15.9483 111.956V113.648H15.5163C13.6803 113.648 12.7623 114.644 12.7623 116.636V122H11.1243V112.136H12.7623V113.738ZM17.2271 117.032C17.2271 116.024 17.4311 115.142 17.8391 114.386C18.2471 113.618 18.8051 113.024 19.5131 112.604C20.2331 112.184 21.0311 111.974 21.9071 111.974C22.7711 111.974 23.5211 112.16 24.1571 112.532C24.7931 112.904 25.2671 113.372 25.5791 113.936V112.136H27.2351V122H25.5791V120.164C25.2551 120.74 24.7691 121.22 24.1211 121.604C23.4851 121.976 22.7411 122.162 21.8891 122.162C21.0131 122.162 20.2211 121.946 19.5131 121.514C18.8051 121.082 18.2471 120.476 17.8391 119.696C17.4311 118.916 17.2271 118.028 17.2271 117.032ZM25.5791 117.05C25.5791 116.306 25.4291 115.658 25.1291 115.106C24.8291 114.554 24.4211 114.134 23.9051 113.846C23.4011 113.546 22.8431 113.396 22.2311 113.396C21.6191 113.396 21.0611 113.54 20.5571 113.828C20.0531 114.116 19.6511 114.536 19.3511 115.088C19.0511 115.64 18.9011 116.288 18.9011 117.032C18.9011 117.788 19.0511 118.448 19.3511 119.012C19.6511 119.564 20.0531 119.99 20.5571 120.29C21.0611 120.578 21.6191 120.722 22.2311 120.722C22.8431 120.722 23.4011 120.578 23.9051 120.29C24.4211 119.99 24.8291 119.564 25.1291 119.012C25.4291 118.448 25.5791 117.794 25.5791 117.05ZM34.8092 111.956C36.0092 111.956 36.9812 112.322 37.7252 113.054C38.4692 113.774 38.8412 114.818 38.8412 116.186V122H37.2212V116.42C37.2212 115.436 36.9752 114.686 36.4832 114.17C35.9912 113.642 35.3192 113.378 34.4672 113.378C33.6032 113.378 32.9132 113.648 32.3972 114.188C31.8932 114.728 31.6412 115.514 31.6412 116.546V122H30.0032V112.136H31.6412V113.54C31.9652 113.036 32.4032 112.646 32.9552 112.37C33.5192 112.094 34.1372 111.956 34.8092 111.956ZM45.0089 122.162C44.2529 122.162 43.5749 122.036 42.9749 121.784C42.3749 121.52 41.9009 121.16 41.5529 120.704C41.2049 120.236 41.0129 119.702 40.9769 119.102H42.6689C42.7169 119.594 42.9449 119.996 43.3529 120.308C43.7729 120.62 44.3189 120.776 44.9909 120.776C45.6149 120.776 46.1069 120.638 46.4669 120.362C46.8269 120.086 47.0069 119.738 47.0069 119.318C47.0069 118.886 46.8149 118.568 46.4309 118.364C46.0469 118.148 45.4529 117.938 44.6489 117.734C43.9169 117.542 43.3169 117.35 42.8489 117.158C42.3929 116.954 41.9969 116.66 41.6609 116.276C41.3369 115.88 41.1749 115.364 41.1749 114.728C41.1749 114.224 41.3249 113.762 41.6249 113.342C41.9249 112.922 42.3509 112.592 42.9029 112.352C43.4549 112.1 44.0849 111.974 44.7929 111.974C45.8849 111.974 46.7669 112.25 47.4389 112.802C48.1109 113.354 48.4709 114.11 48.5189 115.07H46.8809C46.8449 114.554 46.6349 114.14 46.2509 113.828C45.8789 113.516 45.3749 113.36 44.7389 113.36C44.1509 113.36 43.6829 113.486 43.3349 113.738C42.9869 113.99 42.8129 114.32 42.8129 114.728C42.8129 115.052 42.9149 115.322 43.1189 115.538C43.3349 115.742 43.5989 115.91 43.9109 116.042C44.2349 116.162 44.6789 116.3 45.2429 116.456C45.9509 116.648 46.5269 116.84 46.9709 117.032C47.4149 117.212 47.7929 117.488 48.1049 117.86C48.4289 118.232 48.5969 118.718 48.6089 119.318C48.6089 119.858 48.4589 120.344 48.1589 120.776C47.8589 121.208 47.4329 121.55 46.8809 121.802C46.3409 122.042 45.7169 122.162 45.0089 122.162ZM54.9352 113.486H52.8652V122H51.2272V113.486H49.9492V112.136H51.2272V111.434C51.2272 110.33 51.5092 109.526 52.0732 109.022C52.6492 108.506 53.5672 108.248 54.8272 108.248V109.616C54.1072 109.616 53.5972 109.76 53.2972 110.048C53.0092 110.324 52.8652 110.786 52.8652 111.434V112.136H54.9352V113.486ZM61.147 122.162C60.223 122.162 59.383 121.952 58.627 121.532C57.883 121.112 57.295 120.518 56.863 119.75C56.443 118.97 56.233 118.07 56.233 117.05C56.233 116.042 56.449 115.154 56.881 114.386C57.325 113.606 57.925 113.012 58.681 112.604C59.437 112.184 60.283 111.974 61.219 111.974C62.155 111.974 63.001 112.184 63.757 112.604C64.513 113.012 65.107 113.6 65.539 114.368C65.983 115.136 66.205 116.03 66.205 117.05C66.205 118.07 65.977 118.97 65.521 119.75C65.077 120.518 64.471 121.112 63.703 121.532C62.935 121.952 62.083 122.162 61.147 122.162ZM61.147 120.722C61.735 120.722 62.287 120.584 62.803 120.308C63.319 120.032 63.733 119.618 64.045 119.066C64.369 118.514 64.531 117.842 64.531 117.05C64.531 116.258 64.375 115.586 64.063 115.034C63.751 114.482 63.343 114.074 62.839 113.81C62.335 113.534 61.789 113.396 61.201 113.396C60.601 113.396 60.049 113.534 59.545 113.81C59.053 114.074 58.657 114.482 58.357 115.034C58.057 115.586 57.907 116.258 57.907 117.05C57.907 117.854 58.051 118.532 58.339 119.084C58.639 119.636 59.035 120.05 59.527 120.326C60.019 120.59 60.559 120.722 61.147 120.722ZM69.9967 113.738C70.2847 113.174 70.6927 112.736 71.2207 112.424C71.7607 112.112 72.4147 111.956 73.1827 111.956V113.648H72.7507C70.9147 113.648 69.9967 114.644 69.9967 116.636V122H68.3587V112.136H69.9967V113.738ZM86.9355 111.956C87.7035 111.956 88.3875 112.118 88.9875 112.442C89.5875 112.754 90.0615 113.228 90.4095 113.864C90.7575 114.5 90.9315 115.274 90.9315 116.186V122H89.3115V116.42C89.3115 115.436 89.0655 114.686 88.5735 114.17C88.0935 113.642 87.4395 113.378 86.6115 113.378C85.7595 113.378 85.0815 113.654 84.5775 114.206C84.0735 114.746 83.8215 115.532 83.8215 116.564V122H82.2015V116.42C82.2015 115.436 81.9555 114.686 81.4635 114.17C80.9835 113.642 80.3295 113.378 79.5015 113.378C78.6495 113.378 77.9715 113.654 77.4675 114.206C76.9635 114.746 76.7115 115.532 76.7115 116.564V122H75.0735V112.136H76.7115V113.558C77.0355 113.042 77.4675 112.646 78.0075 112.37C78.5595 112.094 79.1655 111.956 79.8255 111.956C80.6535 111.956 81.3855 112.142 82.0215 112.514C82.6575 112.886 83.1315 113.432 83.4435 114.152C83.7195 113.456 84.1755 112.916 84.8115 112.532C85.4475 112.148 86.1555 111.956 86.9355 111.956ZM94.4644 110.534C94.1524 110.534 93.8884 110.426 93.6724 110.21C93.4564 109.994 93.3484 109.73 93.3484 109.418C93.3484 109.106 93.4564 108.842 93.6724 108.626C93.8884 108.41 94.1524 108.302 94.4644 108.302C94.7644 108.302 95.0164 108.41 95.2204 108.626C95.4364 108.842 95.5444 109.106 95.5444 109.418C95.5444 109.73 95.4364 109.994 95.2204 110.21C95.0164 110.426 94.7644 110.534 94.4644 110.534ZM95.2564 112.136V122H93.6184V112.136H95.2564ZM102.854 111.956C104.054 111.956 105.026 112.322 105.77 113.054C106.514 113.774 106.886 114.818 106.886 116.186V122H105.266V116.42C105.266 115.436 105.02 114.686 104.528 114.17C104.036 113.642 103.364 113.378 102.512 113.378C101.648 113.378 100.958 113.648 100.442 114.188C99.9381 114.728 99.6861 115.514 99.6861 116.546V122H98.0481V112.136H99.6861V113.54C100.01 113.036 100.448 112.646 101 112.37C101.564 112.094 102.182 111.956 102.854 111.956ZM113.63 111.974C114.482 111.974 115.226 112.16 115.862 112.532C116.51 112.904 116.99 113.372 117.302 113.936V112.136H118.958V122.216C118.958 123.116 118.766 123.914 118.382 124.61C117.998 125.318 117.446 125.87 116.726 126.266C116.018 126.662 115.19 126.86 114.242 126.86C112.946 126.86 111.866 126.554 111.002 125.942C110.138 125.33 109.628 124.496 109.472 123.44H111.092C111.272 124.04 111.644 124.52 112.208 124.88C112.772 125.252 113.45 125.438 114.242 125.438C115.142 125.438 115.874 125.156 116.438 124.592C117.014 124.028 117.302 123.236 117.302 122.216V120.146C116.978 120.722 116.498 121.202 115.862 121.586C115.226 121.97 114.482 122.162 113.63 122.162C112.754 122.162 111.956 121.946 111.236 121.514C110.528 121.082 109.97 120.476 109.562 119.696C109.154 118.916 108.95 118.028 108.95 117.032C108.95 116.024 109.154 115.142 109.562 114.386C109.97 113.618 110.528 113.024 111.236 112.604C111.956 112.184 112.754 111.974 113.63 111.974ZM117.302 117.05C117.302 116.306 117.152 115.658 116.852 115.106C116.552 114.554 116.144 114.134 115.628 113.846C115.124 113.546 114.566 113.396 113.954 113.396C113.342 113.396 112.784 113.54 112.28 113.828C111.776 114.116 111.374 114.536 111.074 115.088C110.774 115.64 110.624 116.288 110.624 117.032C110.624 117.788 110.774 118.448 111.074 119.012C111.374 119.564 111.776 119.99 112.28 120.29C112.784 120.578 113.342 120.722 113.954 120.722C114.566 120.722 115.124 120.578 115.628 120.29C116.144 119.99 116.552 119.564 116.852 119.012C117.152 118.448 117.302 117.794 117.302 117.05ZM128.163 109.454V122H126.525V109.454H128.163ZM130.342 117.032C130.342 116.024 130.546 115.142 130.954 114.386C131.362 113.618 131.92 113.024 132.628 112.604C133.348 112.184 134.152 111.974 135.04 111.974C135.808 111.974 136.522 112.154 137.182 112.514C137.842 112.862 138.346 113.324 138.694 113.9V108.68H140.35V122H138.694V120.146C138.37 120.734 137.89 121.22 137.254 121.604C136.618 121.976 135.874 122.162 135.022 122.162C134.146 122.162 133.348 121.946 132.628 121.514C131.92 121.082 131.362 120.476 130.954 119.696C130.546 118.916 130.342 118.028 130.342 117.032ZM138.694 117.05C138.694 116.306 138.544 115.658 138.244 115.106C137.944 114.554 137.536 114.134 137.02 113.846C136.516 113.546 135.958 113.396 135.346 113.396C134.734 113.396 134.176 113.54 133.672 113.828C133.168 114.116 132.766 114.536 132.466 115.088C132.166 115.64 132.016 116.288 132.016 117.032C132.016 117.788 132.166 118.448 132.466 119.012C132.766 119.564 133.168 119.99 133.672 120.29C134.176 120.578 134.734 120.722 135.346 120.722C135.958 120.722 136.516 120.578 137.02 120.29C137.536 119.99 137.944 119.564 138.244 119.012C138.544 118.448 138.694 117.794 138.694 117.05ZM152.118 116.69C152.118 117.002 152.1 117.332 152.064 117.68H144.18C144.24 118.652 144.57 119.414 145.17 119.966C145.782 120.506 146.52 120.776 147.384 120.776C148.092 120.776 148.68 120.614 149.148 120.29C149.628 119.954 149.964 119.51 150.156 118.958H151.92C151.656 119.906 151.128 120.68 150.336 121.28C149.544 121.868 148.56 122.162 147.384 122.162C146.448 122.162 145.608 121.952 144.864 121.532C144.132 121.112 143.556 120.518 143.136 119.75C142.716 118.97 142.506 118.07 142.506 117.05C142.506 116.03 142.71 115.136 143.118 114.368C143.526 113.6 144.096 113.012 144.828 112.604C145.572 112.184 146.424 111.974 147.384 111.974C148.32 111.974 149.148 112.178 149.868 112.586C150.588 112.994 151.14 113.558 151.524 114.278C151.92 114.986 152.118 115.79 152.118 116.69ZM150.426 116.348C150.426 115.724 150.288 115.19 150.012 114.746C149.736 114.29 149.358 113.948 148.878 113.72C148.41 113.48 147.888 113.36 147.312 113.36C146.484 113.36 145.776 113.624 145.188 114.152C144.612 114.68 144.282 115.412 144.198 116.348H150.426ZM153.669 117.032C153.669 116.024 153.873 115.142 154.281 114.386C154.689 113.618 155.247 113.024 155.955 112.604C156.675 112.184 157.473 111.974 158.349 111.974C159.213 111.974 159.963 112.16 160.599 112.532C161.235 112.904 161.709 113.372 162.021 113.936V112.136H163.677V122H162.021V120.164C161.697 120.74 161.211 121.22 160.563 121.604C159.927 121.976 159.183 122.162 158.331 122.162C157.455 122.162 156.663 121.946 155.955 121.514C155.247 121.082 154.689 120.476 154.281 119.696C153.873 118.916 153.669 118.028 153.669 117.032ZM162.021 117.05C162.021 116.306 161.871 115.658 161.571 115.106C161.271 114.554 160.863 114.134 160.347 113.846C159.843 113.546 159.285 113.396 158.673 113.396C158.061 113.396 157.503 113.54 156.999 113.828C156.495 114.116 156.093 114.536 155.793 115.088C155.493 115.64 155.343 116.288 155.343 117.032C155.343 117.788 155.493 118.448 155.793 119.012C156.093 119.564 156.495 119.99 156.999 120.29C157.503 120.578 158.061 120.722 158.673 120.722C159.285 120.722 159.843 120.578 160.347 120.29C160.863 119.99 161.271 119.564 161.571 119.012C161.871 118.448 162.021 117.794 162.021 117.05ZM169.937 122.162C169.181 122.162 168.503 122.036 167.903 121.784C167.303 121.52 166.829 121.16 166.481 120.704C166.133 120.236 165.941 119.702 165.905 119.102H167.597C167.645 119.594 167.873 119.996 168.281 120.308C168.701 120.62 169.247 120.776 169.919 120.776C170.543 120.776 171.035 120.638 171.395 120.362C171.755 120.086 171.935 119.738 171.935 119.318C171.935 118.886 171.743 118.568 171.359 118.364C170.975 118.148 170.381 117.938 169.577 117.734C168.845 117.542 168.245 117.35 167.777 117.158C167.321 116.954 166.925 116.66 166.589 116.276C166.265 115.88 166.103 115.364 166.103 114.728C166.103 114.224 166.253 113.762 166.553 113.342C166.853 112.922 167.279 112.592 167.831 112.352C168.383 112.1 169.013 111.974 169.721 111.974C170.813 111.974 171.695 112.25 172.367 112.802C173.039 113.354 173.399 114.11 173.447 115.07H171.809C171.773 114.554 171.563 114.14 171.179 113.828C170.807 113.516 170.303 113.36 169.667 113.36C169.079 113.36 168.611 113.486 168.263 113.738C167.915 113.99 167.741 114.32 167.741 114.728C167.741 115.052 167.843 115.322 168.047 115.538C168.263 115.742 168.527 115.91 168.839 116.042C169.163 116.162 169.607 116.3 170.171 116.456C170.879 116.648 171.455 116.84 171.899 117.032C172.343 117.212 172.721 117.488 173.033 117.86C173.357 118.232 173.525 118.718 173.537 119.318C173.537 119.858 173.387 120.344 173.087 120.776C172.787 121.208 172.361 121.55 171.809 121.802C171.269 122.042 170.645 122.162 169.937 122.162ZM181.494 110.534C181.182 110.534 180.918 110.426 180.702 110.21C180.486 109.994 180.378 109.73 180.378 109.418C180.378 109.106 180.486 108.842 180.702 108.626C180.918 108.41 181.182 108.302 181.494 108.302C181.794 108.302 182.046 108.41 182.25 108.626C182.466 108.842 182.574 109.106 182.574 109.418C182.574 109.73 182.466 109.994 182.25 110.21C182.046 110.426 181.794 110.534 181.494 110.534ZM182.286 112.136V122H180.648V112.136H182.286ZM189.883 111.956C191.083 111.956 192.055 112.322 192.799 113.054C193.543 113.774 193.915 114.818 193.915 116.186V122H192.295V116.42C192.295 115.436 192.049 114.686 191.557 114.17C191.065 113.642 190.393 113.378 189.541 113.378C188.677 113.378 187.987 113.648 187.471 114.188C186.967 114.728 186.715 115.514 186.715 116.546V122H185.077V112.136H186.715V113.54C187.039 113.036 187.477 112.646 188.029 112.37C188.593 112.094 189.211 111.956 189.883 111.956ZM198.589 113.486V119.3C198.589 119.78 198.691 120.122 198.895 120.326C199.099 120.518 199.453 120.614 199.957 120.614H201.163V122H199.687C198.775 122 198.091 121.79 197.635 121.37C197.179 120.95 196.951 120.26 196.951 119.3V113.486H195.673V112.136H196.951V109.652H198.589V112.136H201.163V113.486H198.589ZM207.45 122.162C206.526 122.162 205.686 121.952 204.93 121.532C204.186 121.112 203.598 120.518 203.166 119.75C202.746 118.97 202.536 118.07 202.536 117.05C202.536 116.042 202.752 115.154 203.184 114.386C203.628 113.606 204.228 113.012 204.984 112.604C205.74 112.184 206.586 111.974 207.522 111.974C208.458 111.974 209.304 112.184 210.06 112.604C210.816 113.012 211.41 113.6 211.842 114.368C212.286 115.136 212.508 116.03 212.508 117.05C212.508 118.07 212.28 118.97 211.824 119.75C211.38 120.518 210.774 121.112 210.006 121.532C209.238 121.952 208.386 122.162 207.45 122.162ZM207.45 120.722C208.038 120.722 208.59 120.584 209.106 120.308C209.622 120.032 210.036 119.618 210.348 119.066C210.672 118.514 210.834 117.842 210.834 117.05C210.834 116.258 210.678 115.586 210.366 115.034C210.054 114.482 209.646 114.074 209.142 113.81C208.638 113.534 208.092 113.396 207.504 113.396C206.904 113.396 206.352 113.534 205.848 113.81C205.356 114.074 204.96 114.482 204.66 115.034C204.36 115.586 204.21 116.258 204.21 117.05C204.21 117.854 204.354 118.532 204.642 119.084C204.942 119.636 205.338 120.05 205.83 120.326C206.322 120.59 206.862 120.722 207.45 120.722ZM223.366 109.454C224.734 109.454 225.916 109.712 226.912 110.228C227.92 110.732 228.688 111.458 229.216 112.406C229.756 113.354 230.026 114.47 230.026 115.754C230.026 117.038 229.756 118.154 229.216 119.102C228.688 120.038 227.92 120.758 226.912 121.262C225.916 121.754 224.734 122 223.366 122H219.46V109.454H223.366ZM223.366 120.65C224.986 120.65 226.222 120.224 227.074 119.372C227.926 118.508 228.352 117.302 228.352 115.754C228.352 114.194 227.92 112.976 227.056 112.1C226.204 111.224 224.974 110.786 223.366 110.786H221.098V120.65H223.366ZM233.033 110.534C232.721 110.534 232.457 110.426 232.241 110.21C232.025 109.994 231.917 109.73 231.917 109.418C231.917 109.106 232.025 108.842 232.241 108.626C232.457 108.41 232.721 108.302 233.033 108.302C233.333 108.302 233.585 108.41 233.789 108.626C234.005 108.842 234.113 109.106 234.113 109.418C234.113 109.73 234.005 109.994 233.789 110.21C233.585 110.426 233.333 110.534 233.033 110.534ZM233.825 112.136V122H232.187V112.136H233.825ZM240.684 111.974C241.536 111.974 242.28 112.16 242.916 112.532C243.564 112.904 244.044 113.372 244.356 113.936V112.136H246.012V122.216C246.012 123.116 245.82 123.914 245.436 124.61C245.052 125.318 244.5 125.87 243.78 126.266C243.072 126.662 242.244 126.86 241.296 126.86C240 126.86 238.92 126.554 238.056 125.942C237.192 125.33 236.682 124.496 236.526 123.44H238.146C238.326 124.04 238.698 124.52 239.262 124.88C239.826 125.252 240.504 125.438 241.296 125.438C242.196 125.438 242.928 125.156 243.492 124.592C244.068 124.028 244.356 123.236 244.356 122.216V120.146C244.032 120.722 243.552 121.202 242.916 121.586C242.28 121.97 241.536 122.162 240.684 122.162C239.808 122.162 239.01 121.946 238.29 121.514C237.582 121.082 237.024 120.476 236.616 119.696C236.208 118.916 236.004 118.028 236.004 117.032C236.004 116.024 236.208 115.142 236.616 114.386C237.024 113.618 237.582 113.024 238.29 112.604C239.01 112.184 239.808 111.974 240.684 111.974ZM244.356 117.05C244.356 116.306 244.206 115.658 243.906 115.106C243.606 114.554 243.198 114.134 242.682 113.846C242.178 113.546 241.62 113.396 241.008 113.396C240.396 113.396 239.838 113.54 239.334 113.828C238.83 114.116 238.428 114.536 238.128 115.088C237.828 115.64 237.678 116.288 237.678 117.032C237.678 117.788 237.828 118.448 238.128 119.012C238.428 119.564 238.83 119.99 239.334 120.29C239.838 120.578 240.396 120.722 241.008 120.722C241.62 120.722 242.178 120.578 242.682 120.29C243.198 119.99 243.606 119.564 243.906 119.012C244.206 118.448 244.356 117.794 244.356 117.05ZM249.627 110.534C249.315 110.534 249.051 110.426 248.835 110.21C248.619 109.994 248.511 109.73 248.511 109.418C248.511 109.106 248.619 108.842 248.835 108.626C249.051 108.41 249.315 108.302 249.627 108.302C249.927 108.302 250.179 108.41 250.383 108.626C250.599 108.842 250.707 109.106 250.707 109.418C250.707 109.73 250.599 109.994 250.383 110.21C250.179 110.426 249.927 110.534 249.627 110.534ZM250.419 112.136V122H248.781V112.136H250.419ZM255.208 113.486V119.3C255.208 119.78 255.31 120.122 255.514 120.326C255.718 120.518 256.072 120.614 256.576 120.614H257.782V122H256.306C255.394 122 254.71 121.79 254.254 121.37C253.798 120.95 253.57 120.26 253.57 119.3V113.486H252.292V112.136H253.57V109.652H255.208V112.136H257.782V113.486H255.208ZM259.155 117.032C259.155 116.024 259.359 115.142 259.767 114.386C260.175 113.618 260.733 113.024 261.441 112.604C262.161 112.184 262.959 111.974 263.835 111.974C264.699 111.974 265.449 112.16 266.085 112.532C266.721 112.904 267.195 113.372 267.507 113.936V112.136H269.163V122H267.507V120.164C267.183 120.74 266.697 121.22 266.049 121.604C265.413 121.976 264.669 122.162 263.817 122.162C262.941 122.162 262.149 121.946 261.441 121.514C260.733 121.082 260.175 120.476 259.767 119.696C259.359 118.916 259.155 118.028 259.155 117.032ZM267.507 117.05C267.507 116.306 267.357 115.658 267.057 115.106C266.757 114.554 266.349 114.134 265.833 113.846C265.329 113.546 264.771 113.396 264.159 113.396C263.547 113.396 262.989 113.54 262.485 113.828C261.981 114.116 261.579 114.536 261.279 115.088C260.979 115.64 260.829 116.288 260.829 117.032C260.829 117.788 260.979 118.448 261.279 119.012C261.579 119.564 261.981 119.99 262.485 120.29C262.989 120.578 263.547 120.722 264.159 120.722C264.771 120.722 265.329 120.578 265.833 120.29C266.349 119.99 266.757 119.564 267.057 119.012C267.357 118.448 267.507 117.794 267.507 117.05ZM273.569 108.68V122H271.931V108.68H273.569ZM285.137 122.126C284.309 122.126 283.565 121.982 282.905 121.694C282.257 121.394 281.747 120.986 281.375 120.47C281.003 119.942 280.811 119.336 280.799 118.652H282.545C282.605 119.24 282.845 119.738 283.265 120.146C283.697 120.542 284.321 120.74 285.137 120.74C285.917 120.74 286.529 120.548 286.973 120.164C287.429 119.768 287.657 119.264 287.657 118.652C287.657 118.172 287.525 117.782 287.261 117.482C286.997 117.182 286.667 116.954 286.271 116.798C285.875 116.642 285.341 116.474 284.669 116.294C283.841 116.078 283.175 115.862 282.671 115.646C282.179 115.43 281.753 115.094 281.393 114.638C281.045 114.17 280.871 113.546 280.871 112.766C280.871 112.082 281.045 111.476 281.393 110.948C281.741 110.42 282.227 110.012 282.851 109.724C283.487 109.436 284.213 109.292 285.029 109.292C286.205 109.292 287.165 109.586 287.909 110.174C288.665 110.762 289.091 111.542 289.187 112.514H287.387C287.327 112.034 287.075 111.614 286.631 111.254C286.187 110.882 285.599 110.696 284.867 110.696C284.183 110.696 283.625 110.876 283.193 111.236C282.761 111.584 282.545 112.076 282.545 112.712C282.545 113.168 282.671 113.54 282.923 113.828C283.187 114.116 283.505 114.338 283.877 114.494C284.261 114.638 284.795 114.806 285.479 114.998C286.307 115.226 286.973 115.454 287.477 115.682C287.981 115.898 288.413 116.24 288.773 116.708C289.133 117.164 289.313 117.788 289.313 118.58C289.313 119.192 289.151 119.768 288.827 120.308C288.503 120.848 288.023 121.286 287.387 121.622C286.751 121.958 286.001 122.126 285.137 122.126ZM300.472 112.136V122H298.834V120.542C298.522 121.046 298.084 121.442 297.52 121.73C296.968 122.006 296.356 122.144 295.684 122.144C294.916 122.144 294.226 121.988 293.614 121.676C293.002 121.352 292.516 120.872 292.156 120.236C291.808 119.6 291.634 118.826 291.634 117.914V112.136H293.254V117.698C293.254 118.67 293.5 119.42 293.992 119.948C294.484 120.464 295.156 120.722 296.008 120.722C296.884 120.722 297.574 120.452 298.078 119.912C298.582 119.372 298.834 118.586 298.834 117.554V112.136H300.472ZM302.626 117.05C302.626 116.03 302.83 115.142 303.238 114.386C303.646 113.618 304.21 113.024 304.93 112.604C305.662 112.184 306.496 111.974 307.432 111.974C308.644 111.974 309.64 112.268 310.42 112.856C311.212 113.444 311.734 114.26 311.986 115.304H310.222C310.054 114.704 309.724 114.23 309.232 113.882C308.752 113.534 308.152 113.36 307.432 113.36C306.496 113.36 305.74 113.684 305.164 114.332C304.588 114.968 304.3 115.874 304.3 117.05C304.3 118.238 304.588 119.156 305.164 119.804C305.74 120.452 306.496 120.776 307.432 120.776C308.152 120.776 308.752 120.608 309.232 120.272C309.712 119.936 310.042 119.456 310.222 118.832H311.986C311.722 119.84 311.194 120.65 310.402 121.262C309.61 121.862 308.62 122.162 307.432 122.162C306.496 122.162 305.662 121.952 304.93 121.532C304.21 121.112 303.646 120.518 303.238 119.75C302.83 118.982 302.626 118.082 302.626 117.05ZM313.559 117.05C313.559 116.03 313.763 115.142 314.171 114.386C314.579 113.618 315.143 113.024 315.863 112.604C316.595 112.184 317.429 111.974 318.365 111.974C319.577 111.974 320.573 112.268 321.353 112.856C322.145 113.444 322.667 114.26 322.919 115.304H321.155C320.987 114.704 320.657 114.23 320.165 113.882C319.685 113.534 319.085 113.36 318.365 113.36C317.429 113.36 316.673 113.684 316.097 114.332C315.521 114.968 315.233 115.874 315.233 117.05C315.233 118.238 315.521 119.156 316.097 119.804C316.673 120.452 317.429 120.776 318.365 120.776C319.085 120.776 319.685 120.608 320.165 120.272C320.645 119.936 320.975 119.456 321.155 118.832H322.919C322.655 119.84 322.127 120.65 321.335 121.262C320.543 121.862 319.553 122.162 318.365 122.162C317.429 122.162 316.595 121.952 315.863 121.532C315.143 121.112 314.579 120.518 314.171 119.75C313.763 118.982 313.559 118.082 313.559 117.05ZM334.105 116.69C334.105 117.002 334.087 117.332 334.051 117.68H326.167C326.227 118.652 326.557 119.414 327.157 119.966C327.769 120.506 328.507 120.776 329.371 120.776C330.079 120.776 330.667 120.614 331.135 120.29C331.615 119.954 331.951 119.51 332.143 118.958H333.907C333.643 119.906 333.115 120.68 332.323 121.28C331.531 121.868 330.547 122.162 329.371 122.162C328.435 122.162 327.595 121.952 326.851 121.532C326.119 121.112 325.543 120.518 325.123 119.75C324.703 118.97 324.493 118.07 324.493 117.05C324.493 116.03 324.697 115.136 325.105 114.368C325.513 113.6 326.083 113.012 326.815 112.604C327.559 112.184 328.411 111.974 329.371 111.974C330.307 111.974 331.135 112.178 331.855 112.586C332.575 112.994 333.127 113.558 333.511 114.278C333.907 114.986 334.105 115.79 334.105 116.69ZM332.413 116.348C332.413 115.724 332.275 115.19 331.999 114.746C331.723 114.29 331.345 113.948 330.865 113.72C330.397 113.48 329.875 113.36 329.299 113.36C328.471 113.36 327.763 113.624 327.175 114.152C326.599 114.68 326.269 115.412 326.185 116.348H332.413ZM339.759 122.162C339.003 122.162 338.325 122.036 337.725 121.784C337.125 121.52 336.651 121.16 336.303 120.704C335.955 120.236 335.763 119.702 335.727 119.102H337.419C337.467 119.594 337.695 119.996 338.103 120.308C338.523 120.62 339.069 120.776 339.741 120.776C340.365 120.776 340.857 120.638 341.217 120.362C341.577 120.086 341.757 119.738 341.757 119.318C341.757 118.886 341.565 118.568 341.181 118.364C340.797 118.148 340.203 117.938 339.399 117.734C338.667 117.542 338.067 117.35 337.599 117.158C337.143 116.954 336.747 116.66 336.411 116.276C336.087 115.88 335.925 115.364 335.925 114.728C335.925 114.224 336.075 113.762 336.375 113.342C336.675 112.922 337.101 112.592 337.653 112.352C338.205 112.1 338.835 111.974 339.543 111.974C340.635 111.974 341.517 112.25 342.189 112.802C342.861 113.354 343.221 114.11 343.269 115.07H341.631C341.595 114.554 341.385 114.14 341.001 113.828C340.629 113.516 340.125 113.36 339.489 113.36C338.901 113.36 338.433 113.486 338.085 113.738C337.737 113.99 337.563 114.32 337.563 114.728C337.563 115.052 337.665 115.322 337.869 115.538C338.085 115.742 338.349 115.91 338.661 116.042C338.985 116.162 339.429 116.3 339.993 116.456C340.701 116.648 341.277 116.84 341.721 117.032C342.165 117.212 342.543 117.488 342.855 117.86C343.179 118.232 343.347 118.718 343.359 119.318C343.359 119.858 343.209 120.344 342.909 120.776C342.609 121.208 342.183 121.55 341.631 121.802C341.091 122.042 340.467 122.162 339.759 122.162ZM349.163 122.162C348.407 122.162 347.729 122.036 347.129 121.784C346.529 121.52 346.055 121.16 345.707 120.704C345.359 120.236 345.167 119.702 345.131 119.102H346.823C346.871 119.594 347.099 119.996 347.507 120.308C347.927 120.62 348.473 120.776 349.145 120.776C349.769 120.776 350.261 120.638 350.621 120.362C350.981 120.086 351.161 119.738 351.161 119.318C351.161 118.886 350.969 118.568 350.585 118.364C350.201 118.148 349.607 117.938 348.803 117.734C348.071 117.542 347.471 117.35 347.003 117.158C346.547 116.954 346.151 116.66 345.815 116.276C345.491 115.88 345.329 115.364 345.329 114.728C345.329 114.224 345.479 113.762 345.779 113.342C346.079 112.922 346.505 112.592 347.057 112.352C347.609 112.1 348.239 111.974 348.947 111.974C350.039 111.974 350.921 112.25 351.593 112.802C352.265 113.354 352.625 114.11 352.673 115.07H351.035C350.999 114.554 350.789 114.14 350.405 113.828C350.033 113.516 349.529 113.36 348.893 113.36C348.305 113.36 347.837 113.486 347.489 113.738C347.141 113.99 346.967 114.32 346.967 114.728C346.967 115.052 347.069 115.322 347.273 115.538C347.489 115.742 347.753 115.91 348.065 116.042C348.389 116.162 348.833 116.3 349.397 116.456C350.105 116.648 350.681 116.84 351.125 117.032C351.569 117.212 351.947 117.488 352.259 117.86C352.583 118.232 352.751 118.718 352.763 119.318C352.763 119.858 352.613 120.344 352.313 120.776C352.013 121.208 351.587 121.55 351.035 121.802C350.495 122.042 349.871 122.162 349.163 122.162Z" fill="white"/>
</svg>
